<?xml version="1.0" encoding="utf-8"?>
<!-- Generator: Adobe Illustrator 19.2.0, SVG Export Plug-In . SVG Version: 6.00 Build 0)  -->
<svg version="1.1" id="Layer_1" xmlns="http://www.w3.org/2000/svg" xmlns:xlink="http://www.w3.org/1999/xlink" x="0px" y="0px"
	 viewBox="0 0 522 522" style="enable-background:new 0 0 522 522;" xml:space="preserve">
<style type="text/css">
	.st0{fill:none;stroke:#11B8BB;stroke-width:20;}
	.st1{fill:none;stroke:#16556D;stroke-width:11;}
	.st2{fill:#16556D;}
</style>
<g id="Group_1" transform="translate(-145 -258)">
	<circle id="Oval" class="st0" cx="406" cy="519" r="245.9"/>
	<path id="Rectangle-2" class="st1" d="M320.8,431.6h170.4c33.3,0,60.2,27,60.2,60.2v115.8c0,33.3-27,60.2-60.2,60.2H320.8
		c-33.3,0-60.2-27-60.2-60.2V491.8C260.6,458.5,287.5,431.6,320.8,431.6z"/>
	<path id="Rectangle-4" class="st2" d="M351.5,504.3L351.5,504.3c10,0,18.2,8.1,18.2,18.2l0,0c0,10-8.1,18.2-18.2,18.2l0,0
		c-10,0-18.2-8.1-18.2-18.2l0,0C333.3,512.4,341.4,504.3,351.5,504.3z"/>
	<rect id="Rectangle-4-Copy-2-2" x="398.8" y="395.2" class="st2" width="14.4" height="36.4"/>
	<path id="Rectangle-4-Copy-6" class="st2" d="M384.7,343.8h42.6c8.3,0,15.1,6.7,15.1,15.1v24.4c0,8.3-6.7,15.1-15.1,15.1h-42.6
		c-8.3,0-15.1-6.7-15.1-15.1v-24.4C369.7,350.6,376.4,343.8,384.7,343.8z"/>
	<path id="Rectangle-4-Copy-6-2" class="st2" d="M242.4,504.3h24.4c8.3,0,15.1,6.7,15.1,15.1V562c0,8.3-6.7,15.1-15.1,15.1h-24.4
		c-8.3,0-15.1-6.7-15.1-15.1v-42.6C227.3,511,234.1,504.3,242.4,504.3z"/>
	<path id="Rectangle-4-Copy-7" class="st2" d="M545.2,504.3h24.4c8.3,0,15.1,6.7,15.1,15.1V562c0,8.3-6.7,15.1-15.1,15.1h-24.4
		c-8.3,0-15.1-6.7-15.1-15.1v-42.6C530.1,511,536.9,504.3,545.2,504.3z"/>
	<path id="Rectangle-4-Copy" class="st2" d="M460.5,504.3L460.5,504.3c10,0,18.2,8.1,18.2,18.2l0,0c0,10-8.1,18.2-18.2,18.2l0,0
		c-10,0-18.2-8.1-18.2-18.2l0,0C442.4,512.4,450.5,504.3,460.5,504.3z"/>
	<path class="st2" d="M333,592c0,0,19.7,36.2,72.7,36.3c53.9,0.2,72.7-36.3,72.7-36.3H333z"/>
</g>
</svg>
